<svg xmlns="http://www.w3.org/2000/svg" width="512" height="512" viewBox="0 0 84 84" fill="none" stroke="#103b37" stroke-width="2.5" stroke-linecap="round" stroke-linejoin="round"><path d="M42 73V23"/><path d="M42 29c-9-7-8-15 0-23 8 8 9 16 0 23Z" fill="#f2d38b"/><path d="M42 42c-13 0-20-8-18-21 13 1 20 9 18 21ZM42 42c13 0 20-8 18-21-13 1-20 9-18 21ZM42 56c-13 0-20-8-18-21 13 1 20 9 18 21ZM42 56c13 0 20-8 18-21-13 1-20 9-18 21ZM42 69c-13 0-20-8-18-21 13 1 20 9 18 21ZM42 69c13 0 20-8 18-21-13 1-20 9-18 21Z" fill="#f2d38b"/></svg>